<?xml version="1.0" encoding="UTF-8"?> <svg xmlns="http://www.w3.org/2000/svg" viewBox="0 0 600 220.83"><g id="Layer_2" data-name="Layer 2"><g id="Layer_1-2" data-name="Layer 1"><path d="M313.05,135l-1.31,0c-2.11-8.88-7.9-15.21-19.18-15.37l-9-.12-.36,26.38,6.89.1c7,.09,9.19-3.23,9.55-9.2l1.3,0-.29,21.35-1.31,0c-.19-6.06-2.29-9.45-9.28-9.54l-6.9-.1-.31,22.47c-.07,4.75,2.33,6.18,10.81,7l0,1.3-33.47-.46,0-1.31c5.7-.67,8.14-2,8.2-6l.65-47.35c.06-4-2.34-5.45-8-6.27l0-1.31,50.06.7Z"></path><path d="M361.64,174.88l0,1.31-18.53,5.15-1.31,0-.52-9.8,0-1.4c-2.43,7-8.36,11.08-15.91,11-7.74-.11-12.89-5-12.79-12.2.14-9.79,7.09-13.8,24.29-16.73l4.67-.77.06-3.92c.12-8.58-2.89-13.84-8.11-13.91-6.9-.1-9.53,8-6.72,13.7l-11.7,3.48c-5.07-11.07,5.78-20,20.41-19.77,12.87.18,20,7,19.9,17.34l-.29,21.26c0,3.17,2,4.69,5.15,5.2Zm-20.13-20.79-4.31.78c-6.44,1.21-10.6,4.61-10.68,10.39-.06,4.66,2.69,8.05,6.7,8.11,3.26,0,6.65-2.52,8.11-6.32Z"></path><path d="M362.53,171l9.67-5C374,173.75,379,179.13,385,179.21c4.57.07,8-2.59,8.11-6.69.2-14.17-28.16-6.73-28-25.84.13-8.86,7.86-15.09,19.7-14.93,8.48.12,16.08,3.49,18.42,9.68l-8.92,4.44c-2.05-6.74-6.37-11.46-11.31-11.53-4.1-.06-7.12,2.51-7.17,6.33-.18,12.49,28.44,6.36,28.26,25.85,0,9.32-8.79,15.45-20.16,15.29C373.57,181.67,365.43,176.89,362.53,171Z"></path><path d="M440.14,175.23a16.28,16.28,0,0,1-14.27,7.26c-8.3-.12-13.54-5.41-13.42-14.27l.45-32.16-5.13-.07,0-1.31,17.82-14,1.3,0-.18,13,13.52.19,0,2.61-13.52-.19-.43,31.7c-.07,4.66,2.58,8.61,7.24,8.67,2.7,0,4.31-1.15,5.91-2.15Z"></path><path d="M484.93,166.15l1.11.39c-1.8,8.93-8.71,16.57-20.92,16.4-15.57-.22-23.43-11.8-23.26-24.29.22-15.66,10-26,24.51-25.76,13.8.19,19.93,8.38,19.85,20.88l-30.86-.43v.28c-.64,12.58,6.35,19.48,16.6,19.62A15,15,0,0,0,484.93,166.15Zm-29.34-15.42,17,.24c-.09-6.44-2.3-15.42-7.71-15.5C459.25,135.4,456.45,142.63,455.59,150.73Z"></path><path d="M529.47,134.51l-1,12.48a10.34,10.34,0,0,0-6.5-2.05,12.89,12.89,0,0,0-11.27,6.18l-.34,24c-.05,3.73,1.33,4.87,7.94,5.89l0,1.31L490.59,182v-1.31c4.49-.87,5.91-2,6-5.7l.41-29.83c0-2.89-1.71-4.68-5.05-5.2l-1.4-.11,0-1.3,19.09-5.15,1.3,0-.2,14.45c3.11-8.81,8.41-14.34,14.65-14.25A10,10,0,0,1,529.47,134.51Z"></path><rect x="45.95" y="128.37" width="43.25" height="43.25" transform="translate(-85.65 209.87) rotate(-87.09)"></rect><path d="M358.64,35.08c-5.59.2-8,7.57-8.48,15.7l16.95-.62C366.69,43.74,364,34.88,358.64,35.08Z"></path><path d="M236.79,60.68c-6.38,1.54-10.36,5.14-10.15,10.92.17,4.65,3.09,7.91,7.1,7.76,3.26-.12,6.52-2.85,7.77-6.72l-.46-13Z"></path><path d="M36.88,15.69l2.59,71.37L29.34,65.69,0,79.6l13.91,29.34L39.82,96.65l.81,22.12,170.54-6.2.13-9.73L405,105.53l67.38-2.45L468.61,0ZM97.15,92.07c-12.49.45-23-4.21-26.64-14.06l12.18-3.7C85,83.55,91.37,89.66,98.54,89.4c6.06-.22,10-4.46,9.79-10.52-.65-17.8-36.09-9.88-36.91-32.43C71,35.36,79.79,27.67,94.51,27.14c11.55-.42,22.07,4.14,25.68,13.62l-12,3.79c-2.3-9.34-8.19-15-15.09-14.75-5.68.21-9.46,4.08-9.26,9.57.6,16.59,36.91,9.39,37.75,32.5C122,84,112.33,91.51,97.15,92.07ZM187,87.5l0-1.31c3.51-1.06,4.77-2.22,4.63-6L190.68,55c-.18-4.85-2.89-7.64-7-7.49-3.54.13-6.1,1.53-9.15,4.81a20.2,20.2,0,0,1,.18,2.42l.94,26c.14,3.82,1.39,4.9,5,5.7l0,1.3-23.38.86,0-1.31c3.51-1.06,4.68-2.22,4.54-6l-.91-25.16c-.18-4.84-2.8-7.64-6.9-7.49-3.26.12-5.83,1.33-8.53,4l1.06,29.16c.14,3.82,1.48,4.9,5.06,5.7l0,1.3-23.47.86,0-1.31c3.51-1.06,4.77-2.23,4.63-6l-1.08-29.72c-.1-2.88-1.94-4.59-5.31-4.93l-1.4-.14,0-1.3,18.81-6,1.31,0,.35,9.59c4.09-5.37,8.69-9.83,15-10.06,7.64-.28,12.17,3.66,13.72,10.33,4.35-6,9.2-11.16,16-11.41,9.32-.34,14,5.56,14.36,15.06l.94,26c.14,3.82,1.49,4.9,5.06,5.7l.05,1.3Zm57-.68-1.3.05-1-9.76-.05-1.39c-2.08,7.07-7.79,11.47-15.34,11.75-7.74.28-13.13-4.38-13.39-11.55-.35-9.78,6.39-14.13,23.42-17.92L241,57l-.15-3.92c-.31-8.57-3.57-13.67-8.79-13.48-6.89.25-9.11,8.44-6,14l-11.51,4.06c-5.62-10.8,4.77-20.23,19.39-20.76,12.86-.47,20.37,6,20.75,16.32l.77,21.24c.11,3.17,2.22,4.58,5.4,4.93l1.4,0,.05,1.3Zm55.59-39a10.43,10.43,0,0,0-6.6-1.72A12.88,12.88,0,0,0,282,52.88l.87,24c.13,3.73,1.57,4.8,8.22,5.49l.05,1.3-27.67,1-.05-1.31c4.44-1.09,5.8-2.26,5.66-6L268,47.61c-.11-2.89-1.94-4.6-5.32-4.94l-1.4,0,0-1.31,18.81-6.09,1.3,0,.53,14.44c2.66-9,7.67-14.74,13.91-15a9.94,9.94,0,0,1,4.13.69ZM322.07,84c-8.29.3-13.79-4.73-14.12-13.58l-1.16-32.14-5.13.19-.05-1.31,17.1-14.89,1.3-.05.47,12.95L334,34.67l.09,2.61-13.51.49,1.16,31.68c.16,4.65,3,8.47,7.67,8.3,2.7-.1,4.24-1.37,5.79-2.45L336,76A16.26,16.26,0,0,1,322.07,84Zm39.22-1.52c-15.56.56-24-10.6-24.44-23.09-.57-15.65,8.65-26.44,23.18-27,13.79-.5,20.33,7.38,20.88,19.86L350.07,53.4v.28c0,12.59,7.31,19.13,17.56,18.76a15,15,0,0,0,12.6-7.73l1.13.33C380,74.05,373.5,82,361.29,82.47Zm54.87-40.8a12.88,12.88,0,0,0-11,6.74l.87,24c.14,3.73,1.58,4.8,8.22,5.49l.05,1.3-27.67,1-.05-1.3c4.44-1.1,5.8-2.27,5.66-6l-1.08-29.82c-.1-2.89-1.94-4.59-5.31-4.94l-1.4,0-.05-1.3,18.81-6.1,1.3-.05.53,14.45c2.66-9,7.67-14.74,13.92-15a10.13,10.13,0,0,1,4.13.69l-.39,12.52A10.35,10.35,0,0,0,416.16,41.67Zm6.9,48.82,0-1.31c4.53-1.19,9.63-4.45,9.6-10.33a9,9,0,0,1-3.7.88c-3.91.14-6.62-2.65-6.78-7a7.58,7.58,0,0,1,7.45-7.92c4.75-.17,8,3.07,8.26,8.94C438.15,82.1,432.63,89.21,423.06,90.49Z"></path><polygon points="536.12 42.76 508.57 75.25 550.2 82.61 536.12 42.76"></polygon><polygon points="526.79 100.58 535.23 107.34 574.44 107.88 574.01 138.38 588.51 149.99 600 72.38 526.79 100.58"></polygon><polygon points="210.06 192.26 210.8 138.97 170.25 156.04 197.52 220.83 262.31 193.55 262.07 192.98 210.06 192.26"></polygon></g></g></svg> 